<?xml version="1.0" standalone="no"?>
<!DOCTYPE svg PUBLIC "-//W3C//DTD SVG 20010904//EN"
 "http://www.w3.org/TR/2001/REC-SVG-20010904/DTD/svg10.dtd">
<svg version="1.0" xmlns="http://www.w3.org/2000/svg"
 width="263.000000pt" height="263.000000pt" viewBox="0 0 263.000000 263.000000"
 preserveAspectRatio="xMidYMid meet">
<metadata>
Created by potrace 1.11, written by Peter Selinger 2001-2013
</metadata>
<g transform="translate(0.000000,263.000000) scale(0.100000,-0.100000)"
fill="#000000" stroke="none">
<path d="M189 2248 c-9 -32 -4 -41 29 -54 62 -25 77 -34 91 -56 11 -17 38
-104 56 -178 3 -8 11 -37 18 -65 59 -207 139 -493 142 -506 2 -9 13 -49 25
-90 12 -41 24 -82 26 -91 4 -12 15 -18 37 -18 l32 0 130 386 c121 360 151 439
152 403 0 -15 39 -142 53 -174 5 -11 52 -154 105 -317 l97 -298 33 0 c33 0 34
1 55 73 12 39 38 122 57 182 19 61 36 117 38 125 6 26 105 352 132 435 42 131
49 142 112 172 61 30 72 39 64 60 -4 10 -44 13 -188 13 l-183 0 -4 -24 c-5
-22 -1 -25 36 -31 23 -4 55 -14 73 -22 31 -14 32 -17 28 -66 -3 -51 -52 -242
-145 -567 -21 -72 -40 -110 -40 -80 0 8 -57 186 -126 397 l-126 384 -36 -3
-35 -3 -124 -370 c-67 -203 -126 -377 -129 -385 -7 -16 -17 12 -55 150 -12 41
-25 89 -29 105 -135 478 -126 433 -97 444 12 5 43 11 69 15 42 6 48 10 48 32
l0 24 -210 0 c-116 0 -210 -1 -211 -2z"/>
<path d="M1635 1406 c-229 -55 -387 -252 -399 -497 -10 -189 65 -364 202 -471
74 -59 213 -101 321 -97 81 3 204 29 291 62 l65 24 0 147 0 148 28 24 c16 13
37 25 48 25 10 1 24 3 29 4 6 1 15 3 20 4 6 0 10 12 10 26 l0 25 -227 -2
c-222 -3 -228 -4 -225 -23 5 -25 2 -23 42 -30 127 -20 130 -25 130 -176 0
-134 -6 -147 -80 -173 -192 -67 -373 28 -447 236 -36 100 -42 297 -13 403 26
93 56 151 106 201 49 51 84 69 150 81 171 31 283 -46 354 -244 20 -56 26 -63
49 -63 l27 0 -2 143 c-2 78 -3 159 -3 180 -1 34 -3 37 -31 37 -16 0 -30 -3
-30 -7 0 -5 -7 -16 -14 -26 -13 -17 -16 -16 -62 4 -27 12 -62 26 -79 31 -46
15 -204 17 -260 4z"/>
</g>
</svg>
